<svg width="300" height="80" viewBox="0 0 300 80" fill="none" xmlns="http://www.w3.org/2000/svg">
<g clip-path="url(#clip0_2143_335)">
<path d="M73.6458 34.6777L69.5122 31.7128L51.9299 36.6263L62.1907 41.2306L62.244 51.5526L69.6365 55.5913L73.7302 51.2212L73.6458 34.6777Z" fill="#AB84E1"></path>
<path d="M64.3085 61.1367L63.4871 56.1303L47.5565 47.24L51.5481 57.7167L44.2576 65.0561L46.6197 73.1113L52.6181 72.8992L64.3085 61.1367Z" fill="#AB84E1"></path>
<path d="M38.8853 73.2925L41.8645 69.1787L36.9272 51.6808L32.3008 61.8923L21.929 61.9454L17.8709 69.3024L22.262 73.3764L38.8853 73.2925Z" fill="#AB84E1"></path>
<path d="M12.2987 64L17.3292 63.1825L26.2624 47.3284L15.7353 51.3007L8.36046 44.0453L0.266396 46.396L0.479514 52.3656L12.2987 64Z" fill="#AB84E1"></path>
<path d="M0.0843595 38.6987L4.21797 41.6636L21.8003 36.7501L11.5395 32.1458L11.4862 21.8238L4.09365 17.7852L0 22.1552L0.0843595 38.6987Z" fill="#AB84E1"></path>
<path d="M9.42162 12.2397L10.243 17.2461L26.1736 26.1364L22.1821 15.6598L29.4725 8.32037L27.1105 0.265137L21.1121 0.477233L9.42162 12.2397Z" fill="#AB84E1"></path>
<path d="M34.8449 0.0839547L31.8657 4.19774L36.8029 21.6957L41.4294 11.4841L51.8011 11.4311L55.8593 4.07401L51.4682 0L34.8449 0.0839547Z" fill="#AB84E1"></path>
<path d="M61.4315 9.38086L56.401 10.1939L47.4677 26.0481L57.9949 22.0757L65.3697 29.3311L73.4638 26.9804L73.2507 21.0108L61.4315 9.38086Z" fill="#AB84E1"></path>
<path d="M136.205 60.1557C134.318 61.309 132.289 62.2104 130.113 62.8599C127.938 63.5095 125.616 63.832 123.151 63.832C119.382 63.832 115.959 63.0853 112.891 61.5962C109.818 60.1071 107.185 58.1585 104.988 55.7503C102.785 53.3465 101.085 50.5804 99.8772 47.452C98.6695 44.3236 98.0656 41.1245 98.0656 37.8547C98.0656 34.5849 98.705 31.1692 99.9882 28.0408C101.267 24.9124 103.034 22.1507 105.281 19.7426C107.527 17.3388 110.2 15.4255 113.295 14.0071C116.389 12.5887 119.746 11.8773 123.373 11.8773C127.001 11.8773 130.491 12.6329 133.559 14.1485C136.627 15.6641 139.251 17.6481 141.426 20.1005C143.602 22.5528 145.294 25.3454 146.501 28.4694C147.709 31.5978 148.313 34.7704 148.313 37.9961C148.313 41.2217 147.722 44.4915 146.537 47.5227C145.351 50.5539 143.695 53.2493 141.568 55.6045L148.601 63.4697H139.175L136.201 60.1513L136.205 60.1557ZM123.223 55.0345C124.528 55.0345 125.749 54.8798 126.885 54.5661C128.022 54.2524 129.07 53.8326 130.038 53.3023L122.206 44.5004H131.632L135.184 48.4683C136.152 46.9306 136.898 45.2471 137.43 43.4178C137.963 41.5885 138.23 39.737 138.23 37.8635C138.23 35.6498 137.879 33.5111 137.177 31.4388C136.476 29.3708 135.486 27.5415 134.203 25.9552C132.919 24.3689 131.348 23.0919 129.487 22.1286C127.627 21.1654 125.536 20.6837 123.214 20.6837C120.892 20.6837 118.645 21.1786 116.762 22.164C114.875 23.1493 113.304 24.4617 112.052 26.0966C110.795 27.7315 109.84 29.5741 109.188 31.6155C108.535 33.6614 108.207 35.7426 108.207 37.8591C108.207 39.9756 108.544 42.2115 109.223 44.2794C109.898 46.3474 110.879 48.1767 112.158 49.763C113.437 51.3493 115.009 52.6263 116.873 53.5896C118.734 54.5528 120.847 55.0345 123.218 55.0345H123.223Z" fill="white"></path>
<path d="M166.583 64.1988C162.667 64.1988 159.697 62.9483 157.663 60.4474C155.634 57.9464 154.618 54.2435 154.618 49.3344V25.6636H164.332V47.24C164.332 53.0593 166.437 55.9712 170.641 55.9712C172.528 55.9712 174.349 55.4057 176.116 54.2745C177.879 53.1433 179.317 51.4244 180.432 49.1135V25.6592H190.146V52.3568C190.146 53.3687 190.328 54.0889 190.688 54.5219C191.052 54.955 191.642 55.198 192.464 55.2422V63.4697C191.496 63.6597 190.688 63.7835 190.035 63.8321C189.383 63.8807 188.792 63.9028 188.259 63.9028C186.519 63.9028 185.107 63.5051 184.019 62.7141C182.931 61.9188 182.292 60.8274 182.097 59.4311L181.879 56.3999C180.187 58.998 178.012 60.9467 175.352 62.2458C172.693 63.5448 169.767 64.1944 166.579 64.1944L166.583 64.1988Z" fill="white"></path>
<path d="M217.412 64.1988C214.366 64.1988 211.609 63.6818 209.145 62.6478C206.681 61.6138 204.576 60.2087 202.836 58.428C201.095 56.6473 199.754 54.5793 198.813 52.2242C197.872 49.869 197.401 47.3902 197.401 44.792C197.401 42.1938 197.858 39.5603 198.778 37.1786C199.697 34.7969 201.024 32.7069 202.765 30.8997C204.505 29.0969 206.619 27.6652 209.109 26.6047C211.6 25.5487 214.388 25.0184 217.483 25.0184C220.578 25.0184 223.344 25.5487 225.786 26.6047C228.228 27.6652 230.306 29.0836 232.02 30.8599C233.733 32.6406 235.039 34.7086 235.936 37.0637C236.828 39.4233 237.276 41.8757 237.276 44.4252C237.276 45.0527 237.263 45.6536 237.241 46.228C237.214 46.8069 237.157 47.2885 237.059 47.6729H207.693C207.839 49.1665 208.199 50.4876 208.781 51.6409C209.362 52.7942 210.108 53.784 211.027 54.6014C211.946 55.4189 212.985 56.0463 214.144 56.4794C215.303 56.9124 216.511 57.1289 217.772 57.1289C219.703 57.1289 221.528 56.6605 223.246 55.7238C224.96 54.787 226.132 53.5498 226.763 52.0077L235.101 54.3186C233.698 57.204 231.465 59.5768 228.392 61.4283C225.32 63.2797 221.661 64.2076 217.408 64.2076L217.412 64.1988ZM227.273 41.394C227.029 38.5572 225.981 36.2816 224.121 34.576C222.261 32.8704 220.001 32.0132 217.341 32.0132C216.036 32.0132 214.815 32.243 213.678 32.6981C212.541 33.1576 211.538 33.7939 210.668 34.6114C209.798 35.4288 209.083 36.4142 208.528 37.5719C207.973 38.7251 207.644 40.0021 207.546 41.3984H227.269L227.273 41.394Z" fill="white"></path>
<path d="M243.155 10.7992H252.87V51.3537C252.87 52.75 253.207 53.8326 253.886 54.6015C254.561 55.3703 255.529 55.7547 256.786 55.7547C257.367 55.7547 258.007 55.6575 258.708 55.4675C259.41 55.2775 260.076 55.0345 260.702 54.7473L262.007 62.1088C260.702 62.7362 259.179 63.2179 257.438 63.5537C255.698 63.8895 254.126 64.0574 252.723 64.0574C249.677 64.0574 247.32 63.2532 245.655 61.6404C243.985 60.0276 243.155 57.7343 243.155 54.7473V10.7992Z" fill="white"></path>
<path d="M266.212 70.8356C267.033 71.0742 267.832 71.2554 268.605 71.3791C269.378 71.4984 270.03 71.5603 270.563 71.5603C271.189 71.5603 271.771 71.441 272.303 71.1979C272.836 70.9549 273.32 70.5351 273.755 69.9342C274.19 69.3333 274.626 68.5025 275.061 67.4465C275.496 66.386 275.953 65.0648 276.437 63.4785L261.426 25.668H271.433L281.73 55.1096L290.867 25.668H300.004L284.052 70.9858C283.133 73.6326 281.561 75.7978 279.336 77.4813C277.112 79.1648 274.359 80.0088 271.069 80.0088C270.297 80.0088 269.511 79.9469 268.712 79.8276C267.912 79.7083 267.082 79.505 266.212 79.2134V70.8444V70.8356Z" fill="white"></path>
</g>
<defs>
<clipPath id="clip0_2143_335">
<rect width="300" height="80" fill="white"></rect>
</clipPath>
</defs>
</svg>
