<svg width="32" height="32" viewBox="0 0 32 32" fill="none" xmlns="http://www.w3.org/2000/svg">
<path d="M27.4141 12.6166C27.4141 12.6166 27.4537 12.478 27.4537 12.3987C28.1272 7.74378 25.0569 3.94058 23.6505 4.05943C22.6601 4.13866 21.2933 5.56486 20.5802 6.41662C19.1144 5.82237 17.5297 5.46582 15.8658 5.46582C14.2019 5.46582 12.6173 5.82237 11.1515 6.41662C10.4384 5.56486 9.07158 4.13866 8.08116 4.05943C6.67477 3.94058 3.60448 7.74378 4.27796 12.3987C4.27796 12.478 4.29777 12.5374 4.31758 12.6166C3.44601 14.2607 2.95081 16.0435 2.95081 17.8262C2.95081 23.9668 8.73484 27.7304 15.8658 27.7304C22.9968 27.7304 28.7809 23.9668 28.7809 17.8262C28.7809 16.0435 28.2857 14.2607 27.4141 12.6166ZM21.2933 23.2339H10.4384C6.91247 23.2339 4.04026 20.7975 4.04026 17.2716V17.0141C4.04026 13.4882 6.91247 10.1802 10.4384 10.1802H21.2933C24.8192 10.1802 27.6914 13.4684 27.6914 17.0141V17.2716C27.6914 20.7975 24.8192 23.2339 21.2933 23.2339Z" fill="#C7ADEB"></path>
<path d="M28.1559 16.3116C28.2371 16.8153 28.2809 17.3212 28.2809 17.8262C28.2809 20.7199 26.9257 23.053 24.7028 24.6778C22.4687 26.3108 19.3495 27.2305 15.8658 27.2305C12.3822 27.2305 9.26298 26.3107 7.02893 24.6778C4.80597 23.053 3.45081 20.7199 3.45081 17.8262C3.45081 17.3109 3.49424 16.7943 3.57874 16.2803C3.55328 16.5234 3.54066 16.7682 3.54065 17.0137V17.2716C3.54065 21.1188 6.68379 23.7334 10.4381 23.7335H21.2936C25.0479 23.7334 28.191 21.1188 28.191 17.2716V17.0137C28.191 16.7785 28.179 16.5443 28.1559 16.3116ZM4.77795 12.3624L4.77307 12.3272C4.45458 10.1259 5.02138 8.1224 5.83459 6.68562C6.24152 5.96675 6.70205 5.40393 7.12659 5.03523C7.57581 4.64512 7.8968 4.54591 8.0387 4.55769H8.04163C8.18697 4.5694 8.38465 4.63631 8.63147 4.77644C8.87349 4.91386 9.13344 5.1052 9.39612 5.32918C9.92146 5.77717 10.4215 6.32331 10.7682 6.73738L11.0016 7.01668L11.3395 6.87996C12.7534 6.30677 14.2743 5.9659 15.8658 5.9659C17.4574 5.9659 18.9783 6.30676 20.3922 6.87996L20.7301 7.01668L20.9635 6.73738C21.3102 6.32331 21.8102 5.77717 22.3356 5.32918C22.5983 5.1052 22.8582 4.91386 23.1002 4.77644C23.347 4.6363 23.5447 4.56939 23.6901 4.55769H23.693C23.8349 4.54592 24.1559 4.64513 24.6051 5.03523C25.0296 5.40393 25.4902 5.96676 25.8971 6.68562C26.7103 8.1224 27.2771 10.1259 26.9586 12.3272L26.9537 12.3624V12.3985C26.9537 12.3786 26.9554 12.3862 26.9459 12.4288C26.9426 12.4437 26.9387 12.4579 26.9362 12.4678C26.9349 12.4725 26.9338 12.4765 26.9332 12.4786V12.4796L26.8776 12.6729L26.9723 12.8507C27.0865 13.0662 27.1933 13.2844 27.2936 13.504C26.1131 11.2949 23.8827 9.67987 21.2936 9.67976H10.4381C7.83215 9.67987 5.59001 11.3247 4.41565 13.5548C4.52246 13.318 4.6364 13.0827 4.7594 12.8507L4.84924 12.6817L4.80237 12.4952C4.79682 12.473 4.79011 12.4477 4.78674 12.4346C4.78273 12.4191 4.78038 12.4101 4.77893 12.4034C4.77673 12.3931 4.77792 12.394 4.77795 12.3985V12.3624Z" stroke="#8F5BD7"></path>
<path d="M13.5087 16.6575C13.2511 16.6575 13.0531 16.4594 13.0531 16.2019C13.0531 15.3106 12.3202 14.5777 11.4288 14.5777C10.5374 14.5777 9.80449 15.3106 9.80449 16.2019C9.80449 16.4594 9.60641 16.6575 9.3489 16.6575C9.09139 16.6575 8.89331 16.4594 8.89331 16.2019C8.89331 14.7955 10.0422 13.6467 11.4486 13.6467C12.855 13.6467 14.0039 14.7955 14.0039 16.2019C14.0039 16.4594 13.8058 16.6575 13.5483 16.6575H13.5087Z" fill="#8F5BD7"></path>
<path d="M22.2837 16.6575C22.0262 16.6575 21.8281 16.4594 21.8281 16.2019C21.8281 15.3106 21.0952 14.5777 20.2039 14.5777C19.3125 14.5777 18.5796 15.3106 18.5796 16.2019C18.5796 16.4594 18.3815 16.6575 18.124 16.6575C17.8665 16.6575 17.6684 16.4594 17.6684 16.2019C17.6684 14.7955 18.8173 13.6467 20.2237 13.6467C21.6301 13.6467 22.7789 14.7955 22.7789 16.2019C22.7789 16.4594 22.5809 16.6575 22.3234 16.6575H22.2837Z" fill="#8F5BD7"></path>
<path d="M18.223 18.8364C18.223 20.1834 17.1336 21.2729 15.7866 21.2729C14.4396 21.2729 13.3502 20.1834 13.3502 18.8364H18.2428H18.223Z" fill="#8F5BD7"></path>
</svg>
