<svg width="74" height="80" viewBox="0 0 74 80" fill="none" xmlns="http://www.w3.org/2000/svg">
<path d="M73.6458 34.6777L69.5122 31.7128L51.9299 36.6263L62.1907 41.2306L62.244 51.5526L69.6365 55.5913L73.7302 51.2212L73.6458 34.6777Z" fill="#8F5BD7"></path>
<path d="M64.3085 61.1367L63.4871 56.1303L47.5565 47.24L51.5481 57.7167L44.2576 65.0561L46.6197 73.1113L52.6181 72.8992L64.3085 61.1367Z" fill="#8F5BD7"></path>
<path d="M38.8853 73.2925L41.8645 69.1787L36.9272 51.6808L32.3008 61.8923L21.929 61.9454L17.8709 69.3024L22.262 73.3764L38.8853 73.2925Z" fill="#8F5BD7"></path>
<path d="M12.2987 64L17.3292 63.1825L26.2624 47.3284L15.7353 51.3007L8.36047 44.0453L0.266403 46.396L0.479522 52.3656L12.2987 64Z" fill="#8F5BD7"></path>
<path d="M0.0843595 38.6987L4.21797 41.6636L21.8003 36.7501L11.5395 32.1458L11.4862 21.8238L4.09365 17.7852L0 22.1552L0.0843595 38.6987Z" fill="#8F5BD7"></path>
<path d="M9.42162 12.2397L10.243 17.2461L26.1736 26.1364L22.1821 15.6598L29.4725 8.32037L27.1105 0.265137L21.1121 0.477233L9.42162 12.2397Z" fill="#8F5BD7"></path>
<path d="M34.8449 0.0839547L31.8657 4.19774L36.8029 21.6957L41.4294 11.4841L51.8011 11.4311L55.8593 4.07401L51.4682 0L34.8449 0.0839547Z" fill="#8F5BD7"></path>
<path d="M61.4315 9.38086L56.401 10.1939L47.4677 26.0481L57.9949 22.0757L65.3697 29.3311L73.4638 26.9804L73.2507 21.0108L61.4315 9.38086Z" fill="#8F5BD7"></path>
</svg>
