<svg viewBox="0 0 24 24" xmlns="http://www.w3.org/2000/svg" fill="#00A1E0">
<path d="M10.006 5.415a4.2 4.2 0 0 1 3.045-1.306c1.56 0 2.923.87 3.651 2.16a5.1 5.1 0 0 1 2.096-.447 5.163 5.163 0 0 1 0 10.325c-.32 0-.633-.03-.936-.086a3.75 3.75 0 0 1-3.278 1.936c-.55 0-1.07-.12-1.54-.335a4.29 4.29 0 0 1-3.982 2.69 4.29 4.29 0 0 1-3.997-2.72 3.6 3.6 0 0 1-.74.076A3.664 3.664 0 0 1 .001 16.15a3.66 3.66 0 0 1 1.81-3.164 4.2 4.2 0 0 1-.35-1.68A4.212 4.212 0 0 1 5.68 7.09c.95 0 1.83.31 2.54.837a4.67 4.67 0 0 1 1.786-2.512"></path>
</svg>